<svg width="180" height="180" viewBox="0 0 180 180" fill="none" xmlns="http://www.w3.org/2000/svg">
  <!-- Orange gradient background -->
  <defs>
    <linearGradient id="bgGradient" x1="0%" y1="0%" x2="0%" y2="100%">
      <stop offset="0%" style="stop-color:#FF8C00;stop-opacity:1" />
      <stop offset="100%" style="stop-color:#FF4500;stop-opacity:1" />
    </linearGradient>
    <linearGradient id="logoGradient" x1="0%" y1="0%" x2="0%" y2="100%">
      <stop offset="0%" style="stop-color:#FFD700;stop-opacity:1" />
      <stop offset="100%" style="stop-color:#FFA500;stop-opacity:1" />
    </linearGradient>
  </defs>
  
  <!-- Background -->
  <rect width="180" height="180" fill="url(#bgGradient)" rx="32"/>
  
  <!-- Monifine Logo - Stylized M -->
  <g transform="translate(90, 62)">
    <!-- Top diamond decorative element -->
    <polygon points="0,-11 3,-8 0,-5 -3,-8" fill="url(#logoGradient)"/>
    
    <!-- Stylized M logo -->
    <g fill="url(#logoGradient)" stroke="none">
      <!-- Left leg of M -->
      <rect x="-24" y="-3" width="7" height="36" rx="3.5"/>
      
      <!-- Left diagonal of M -->
      <path d="M -17,-3 L -6,12 L -4,10 L -14,-3 Z" />
      
      <!-- Right diagonal of M -->
      <path d="M 17,-3 L 6,12 L 4,10 L 14,-3 Z" />
      
      <!-- Right leg of M -->
      <rect x="17" y="-3" width="7" height="36" rx="3.5"/>
      
      <!-- Center bottom connection -->
      <circle cx="0" cy="14" r="3" />
    </g>
    
    <!-- Decorative curved elements on sides -->
    <g fill="url(#logoGradient)">
      <!-- Left curve -->
      <path d="M -32,7 Q -35,3 -33,-1 Q -31,-5 -28,-3 Q -30,1 -32,7 Z" />
      
      <!-- Right curve -->
      <path d="M 32,7 Q 35,3 33,-1 Q 31,-5 28,-3 Q 30,1 32,7 Z" />
    </g>
  </g>
  
  <!-- Monifine text -->
  <text x="90" y="135" font-family="Arial, sans-serif" font-size="18" font-weight="500" fill="url(#logoGradient)" text-anchor="middle">Monifine</text>
</svg>
