<svg width="180" height="180" viewBox="0 0 180 180" fill="none" xmlns="http://www.w3.org/2000/svg">
  <!-- Orange gradient background -->
  <defs>
    <linearGradient id="bgGradient" x1="0%" y1="0%" x2="0%" y2="100%">
      <stop offset="0%" style="stop-color:#FF8C00;stop-opacity:1" />
      <stop offset="100%" style="stop-color:#FF4500;stop-opacity:1" />
    </linearGradient>
    <linearGradient id="logoGradient" x1="0%" y1="0%" x2="0%" y2="100%">
      <stop offset="0%" style="stop-color:#FFD700;stop-opacity:1" />
      <stop offset="100%" style="stop-color:#FFA500;stop-opacity:1" />
    </linearGradient>
  </defs>
  
  <!-- Background -->
  <rect width="180" height="180" fill="url(#bgGradient)" rx="32"/>
  
  <!-- Crown icon -->
  <g transform="translate(90, 50)">
    <!-- Diamond on top -->
    <polygon points="0,-7 4,-3 0,1 -4,-3" fill="url(#logoGradient)"/>
    
    <!-- Crown curves -->
    <path d="M -22,0 Q -22,-15 -7,-11 Q 0,-13 0,-5 Q 0,-13 7,-11 Q 22,-15 22,0 Q 22,7 15,9 L 15,15 Q 15,18 11,18 L -11,18 Q -15,18 -15,15 L -15,9 Q -22,7 -22,0 Z" fill="url(#logoGradient)"/>
    
    <!-- Inner details -->
    <circle cx="-13" cy="5" r="3" fill="#FFD700"/>
    <circle cx="13" cy="5" r="3" fill="#FFD700"/>
    <circle cx="0" cy="7" r="2" fill="#FFD700"/>
  </g>
  
  <!-- Monifine text -->
  <text x="90" y="130" font-family="Arial, sans-serif" font-size="22" font-weight="500" fill="url(#logoGradient)" text-anchor="middle">Monifine</text>
</svg>
