<svg width="32" height="32" viewBox="0 0 32 32" fill="none" xmlns="http://www.w3.org/2000/svg">
  <!-- Orange gradient background -->
  <defs>
    <linearGradient id="bgGradient" x1="0%" y1="0%" x2="0%" y2="100%">
      <stop offset="0%" style="stop-color:#FF8C00;stop-opacity:1" />
      <stop offset="100%" style="stop-color:#FF4500;stop-opacity:1" />
    </linearGradient>
  </defs>
  
  <!-- Background -->
  <rect width="32" height="32" fill="url(#bgGradient)" rx="4"/>
  
  <!-- Simplified Monifine M logo -->
  <g transform="translate(16, 10)">
    <!-- Top diamond -->
    <polygon points="0,-3 1.5,-1.5 0,0 -1.5,-1.5" fill="#FFD700"/>
    
    <!-- Stylized M -->
    <g fill="#FFD700">
      <!-- Left leg -->
      <rect x="-7" y="0" width="3" height="12" rx="1.5"/>
      <!-- Right leg -->
      <rect x="4" y="0" width="3" height="12" rx="1.5"/>
      <!-- Left diagonal -->
      <path d="M -4,0 L -1,4 L 0,3 L -3,0 Z" />
      <!-- Right diagonal -->
      <path d="M 4,0 L 1,4 L 0,3 L 3,0 Z" />
      <!-- Center dot -->
      <circle cx="0" cy="5" r="1"/>
    </g>
    
    <!-- Side curves -->
    <path d="M -9,3 Q -10,2 -9.5,1 Q -9,0 -8,1 Q -8.5,2 -9,3 Z" fill="#FFD700"/>
    <path d="M 9,3 Q 10,2 9.5,1 Q 9,0 8,1 Q 8.5,2 9,3 Z" fill="#FFD700"/>
  </g>
</svg>
