<svg width="512" height="512" viewBox="0 0 512 512" fill="none" xmlns="http://www.w3.org/2000/svg">
  <!-- Orange gradient background -->
  <defs>
    <linearGradient id="bgGradient" x1="0%" y1="0%" x2="0%" y2="100%">
      <stop offset="0%" style="stop-color:#FF8C00;stop-opacity:1" />
      <stop offset="100%" style="stop-color:#FF4500;stop-opacity:1" />
    </linearGradient>
    <linearGradient id="logoGradient" x1="0%" y1="0%" x2="0%" y2="100%">
      <stop offset="0%" style="stop-color:#FFD700;stop-opacity:1" />
      <stop offset="100%" style="stop-color:#FFA500;stop-opacity:1" />
    </linearGradient>
  </defs>
  
  <!-- Background -->
  <rect width="512" height="512" fill="url(#bgGradient)" rx="64"/>
  
  <!-- Monifine Logo - Stylized M with decorative elements -->
  <g transform="translate(256, 180)">
    <!-- Top diamond decorative element -->
    <polygon points="0,-30 8,-22 0,-14 -8,-22" fill="url(#logoGradient)"/>
    
    <!-- Stylized M logo -->
    <g fill="url(#logoGradient)" stroke="none">
      <!-- Left leg of M -->
      <rect x="-70" y="-10" width="20" height="100" rx="10"/>
      
      <!-- Left diagonal of M -->
      <path d="M -50,-10 L -15,35 L -10,30 L -40,-10 Z" />
      
      <!-- Right diagonal of M -->
      <path d="M 50,-10 L 15,35 L 10,30 L 40,-10 Z" />
      
      <!-- Right leg of M -->
      <rect x="50" y="-10" width="20" height="100" rx="10"/>
      
      <!-- Center bottom connection -->
      <circle cx="0" cy="40" r="8" />
    </g>
    
    <!-- Decorative curved elements on sides -->
    <g fill="url(#logoGradient)">
      <!-- Left curve -->
      <path d="M -90,20 Q -100,10 -95,0 Q -90,-10 -80,-5 Q -85,5 -90,20 Z" />
      
      <!-- Right curve -->
      <path d="M 90,20 Q 100,10 95,0 Q 90,-10 80,-5 Q 85,5 90,20 Z" />
    </g>
  </g>
  
  <!-- Monifine text -->
  <text x="256" y="380" font-family="Arial, sans-serif" font-size="54" font-weight="500" fill="url(#logoGradient)" text-anchor="middle">Monifine</text>
</svg>
