<svg width="192" height="192" viewBox="0 0 192 192" fill="none" xmlns="http://www.w3.org/2000/svg">
  <!-- Background circle with rounded corners for maskable icon -->
  <rect width="192" height="192" rx="48" fill="#1a1a1a"/>
  
  <!-- Monifine logo scaled and centered -->
  <g transform="translate(48, 32)">
    <!-- Crown/Diamond top -->
    <path d="M48 24L36 48L48 60L60 48L48 24Z" fill="#FF7A00"/>
    
    <!-- Main M logo -->
    <path d="M12 108C6 108 0 102 0 96C0 90 6 84 12 84C30 84 30 108 36 108V54L48 66L60 54V108C66 108 66 84 84 84C90 84 96 90 96 96C96 102 90 108 84 108C78 108 72 106 66 102L48 84L30 102C24 106 18 108 12 108Z" fill="#FF7A00"/>
    
    <!-- Monifine text below -->
    <text x="48" y="144" font-family="Arial, sans-serif" font-size="24" font-weight="bold" fill="#FF7A00" text-anchor="middle">Monifine</text>
  </g>
</svg>
