<svg width="512" height="512" viewBox="0 0 512 512" fill="none" xmlns="http://www.w3.org/2000/svg">
  <!-- Orange gradient background -->
  <defs>
    <linearGradient id="bgGradient" x1="0%" y1="0%" x2="0%" y2="100%">
      <stop offset="0%" style="stop-color:#FF8C00;stop-opacity:1" />
      <stop offset="100%" style="stop-color:#FF4500;stop-opacity:1" />
    </linearGradient>
    <linearGradient id="logoGradient" x1="0%" y1="0%" x2="0%" y2="100%">
      <stop offset="0%" style="stop-color:#FFD700;stop-opacity:1" />
      <stop offset="100%" style="stop-color:#FFA500;stop-opacity:1" />
    </linearGradient>
  </defs>
  
  <!-- Background -->
  <rect width="512" height="512" fill="url(#bgGradient)" rx="64"/>
  
  <!-- Crown icon (simplified version) -->
  <g transform="translate(256, 140)">
    <!-- Diamond on top -->
    <polygon points="0,-20 12,-8 0,4 -12,-8" fill="url(#logoGradient)"/>
    
    <!-- Crown curves -->
    <path d="M -60,0 Q -60,-40 -20,-30 Q 0,-35 0,-15 Q 0,-35 20,-30 Q 60,-40 60,0 Q 60,20 40,25 L 40,40 Q 40,50 30,50 L -30,50 Q -40,50 -40,40 L -40,25 Q -60,20 -60,0 Z" fill="url(#logoGradient)"/>
    
    <!-- Inner details -->
    <circle cx="-35" cy="15" r="8" fill="#FFD700"/>
    <circle cx="35" cy="15" r="8" fill="#FFD700"/>
    <circle cx="0" cy="20" r="6" fill="#FFD700"/>
  </g>
  
  <!-- Monifine text -->
  <text x="256" y="380" font-family="Arial, sans-serif" font-size="64" font-weight="500" fill="url(#logoGradient)" text-anchor="middle">Monifine</text>
</svg>
