<svg width="1200" height="630" viewBox="0 0 1200 630" fill="none" xmlns="http://www.w3.org/2000/svg">
  <!-- Orange gradient background -->
  <defs>
    <linearGradient id="bgGradient" x1="0%" y1="0%" x2="100%" y2="100%">
      <stop offset="0%" style="stop-color:#FF8C00;stop-opacity:1" />
      <stop offset="50%" style="stop-color:#FF7A00;stop-opacity:1" />
      <stop offset="100%" style="stop-color:#FF4500;stop-opacity:1" />
    </linearGradient>
    <linearGradient id="logoGradient" x1="0%" y1="0%" x2="0%" y2="100%">
      <stop offset="0%" style="stop-color:#FFD700;stop-opacity:1" />
      <stop offset="100%" style="stop-color:#FFA500;stop-opacity:1" />
    </linearGradient>
    <filter id="shadow" x="-20%" y="-20%" width="140%" height="140%">
      <feDropShadow dx="4" dy="6" stdDeviation="8" flood-color="#000000" flood-opacity="0.3"/>
    </filter>
  </defs>
  
  <!-- Background -->
  <rect width="1200" height="630" fill="url(#bgGradient)"/>
  
  <!-- Background pattern -->
  <circle cx="100" cy="100" r="150" fill="rgba(255,255,255,0.1)"/>
  <circle cx="1100" cy="530" r="120" fill="rgba(255,255,255,0.08)"/>
  <circle cx="900" cy="80" r="80" fill="rgba(255,255,255,0.06)"/>
  
  <!-- Main content container -->
  <g filter="url(#shadow)">
    <!-- Monifine Logo - Stylized M -->
    <g transform="translate(200, 220)">
      <!-- Top diamond decorative element -->
      <polygon points="0,-35 12,-25 0,-15 -12,-25" fill="url(#logoGradient)"/>
      
      <!-- Stylized M logo -->
      <g fill="url(#logoGradient)" stroke="none">
        <!-- Left leg of M -->
        <rect x="-80" y="-15" width="25" height="120" rx="12"/>
        
        <!-- Left diagonal of M -->
        <path d="M -55,-15 L -18,42 L -12,36 L -45,-15 Z" />
        
        <!-- Right diagonal of M -->
        <path d="M 55,-15 L 18,42 L 12,36 L 45,-15 Z" />
        
        <!-- Right leg of M -->
        <rect x="55" y="-15" width="25" height="120" rx="12"/>
        
        <!-- Center bottom connection -->
        <circle cx="0" cy="48" r="10" />
      </g>
      
      <!-- Decorative curved elements on sides -->
      <g fill="url(#logoGradient)">
        <!-- Left curve -->
        <path d="M -105,25 Q -120,12 -110,0 Q -100,-12 -85,-6 Q -95,6 -105,25 Z" />
        
        <!-- Right curve -->
        <path d="M 105,25 Q 120,12 110,0 Q 100,-12 85,-6 Q 95,6 105,25 Z" />
      </g>
    </g>
    
    <!-- Main title -->
    <text x="450" y="280" font-family="Arial, sans-serif" font-size="72" font-weight="bold" fill="url(#logoGradient)">Monifine</text>
    
    <!-- Subtitle -->
    <text x="450" y="340" font-family="Arial, sans-serif" font-size="36" font-weight="500" fill="rgba(255,255,255,0.9)">Kalkulator HPP & Warehouse Management</text>
    
    <!-- Feature list -->
    <g transform="translate(450, 380)">
      <text x="0" y="30" font-family="Arial, sans-serif" font-size="24" fill="rgba(255,255,255,0.8)">✓ Hitung Harga Pokok Penjualan</text>
      <text x="0" y="65" font-family="Arial, sans-serif" font-size="24" fill="rgba(255,255,255,0.8)">✓ Manajemen Inventory & Warehouse</text>
      <text x="0" y="100" font-family="Arial, sans-serif" font-size="24" fill="rgba(255,255,255,0.8)">✓ Dashboard Analytics & Reporting</text>
    </g>
  </g>
  
  <!-- Bottom brand line -->
  <rect x="0" y="580" width="1200" height="50" fill="rgba(0,0,0,0.2)"/>
  <text x="600" y="610" font-family="Arial, sans-serif" font-size="18" font-weight="500" fill="rgba(255,255,255,0.7)" text-anchor="middle">monifine.my.id</text>
</svg>
