<svg width="192" height="192" viewBox="0 0 192 192" fill="none" xmlns="http://www.w3.org/2000/svg">
  <!-- Orange gradient background -->
  <defs>
    <linearGradient id="bgGradient" x1="0%" y1="0%" x2="0%" y2="100%">
      <stop offset="0%" style="stop-color:#FF8C00;stop-opacity:1" />
      <stop offset="100%" style="stop-color:#FF4500;stop-opacity:1" />
    </linearGradient>
    <linearGradient id="logoGradient" x1="0%" y1="0%" x2="0%" y2="100%">
      <stop offset="0%" style="stop-color:#FFD700;stop-opacity:1" />
      <stop offset="100%" style="stop-color:#FFA500;stop-opacity:1" />
    </linearGradient>
  </defs>
  
  <!-- Background -->
  <rect width="192" height="192" fill="url(#bgGradient)" rx="24"/>
  
  <!-- Monifine Logo - Stylized M -->
  <g transform="translate(96, 70)">
    <!-- Top diamond decorative element -->
    <polygon points="0,-12 3,-9 0,-6 -3,-9" fill="url(#logoGradient)"/>
    
    <!-- Stylized M logo -->
    <g fill="url(#logoGradient)" stroke="none">
      <!-- Left leg of M -->
      <rect x="-26" y="-4" width="8" height="40" rx="4"/>
      
      <!-- Left diagonal of M -->
      <path d="M -18,-4 L -6,14 L -4,12 L -15,-4 Z" />
      
      <!-- Right diagonal of M -->
      <path d="M 18,-4 L 6,14 L 4,12 L 15,-4 Z" />
      
      <!-- Right leg of M -->
      <rect x="18" y="-4" width="8" height="40" rx="4"/>
      
      <!-- Center bottom connection -->
      <circle cx="0" cy="16" r="3" />
    </g>
    
    <!-- Decorative curved elements on sides -->
    <g fill="url(#logoGradient)">
      <!-- Left curve -->
      <path d="M -34,8 Q -37,4 -35,0 Q -33,-4 -30,-2 Q -32,2 -34,8 Z" />
      
      <!-- Right curve -->
      <path d="M 34,8 Q 37,4 35,0 Q 33,-4 30,-2 Q 32,2 34,8 Z" />
    </g>
  </g>
  
  <!-- Monifine text -->
  <text x="96" y="150" font-family="Arial, sans-serif" font-size="20" font-weight="500" fill="url(#logoGradient)" text-anchor="middle">Monifine</text>
</svg>
